<svg xmlns="http://www.w3.org/2000/svg" width="480pt" height="290pt" viewBox="0 0 480 290" version="1.1" xmlns:xlink="http://www.w3.org/1999/xlink">
  <g id="surface2" transform="matrix(1,0,0,1,0,0)">
    <path style="stroke:none;fill-rule:evenodd;fill:rgb(0.000000%,26.666667%,41.568627%);fill-opacity:1" d="M 230.300781 116.500000 C 230.234375 123.632812 227.699219 129.734375 222.699219 134.800781 C 220.199219 137.234375 217.382812 139.082031 214.250000 140.351562 L 209.199219 135.250000 C 207.035156 137.785156 204.332031 139.617188 201.101562 140.750000 C 199.167969 141.382812 197.199219 141.699219 195.199219 141.699219 C 186.800781 141.234375 181.066406 137.082031 178.000000 129.250000 C 175.867188 121.316406 177.750000 114.714844 183.648438 109.449219 L 176.398438 102.000000 C 176.035156 101.898438 175.667969 101.832031 175.300781 101.800781 C 171.464844 101.464844 168.132812 102.417969 165.300781 104.648438 C 162.464844 106.917969 160.765625 109.949219 160.199219 113.750000 C 160.167969 114.316406 160.132812 114.867188 160.101562 115.398438 C 160.101562 115.398438 160.101562 115.398438 160.101562 115.398438 C 160.167969 121.265625 161.417969 126.984375 163.851562 132.550781 C 166.316406 138.117188 169.601562 143.000000 173.699219 147.199219 C 182.234375 155.566406 192.464844 159.851562 204.398438 160.050781 C 216.367188 159.984375 226.648438 155.800781 235.250000 147.500000 C 243.750000 138.867188 248.050781 128.515625 248.148438 116.449219 L 230.300781 116.500000 "/>
    <path style="stroke:none;fill-rule:evenodd;fill:rgb(0.000000%,26.666667%,41.568627%);fill-opacity:1" d="M 182.250000 127.851562 C 184.582031 133.750000 188.917969 136.882812 195.250000 137.250000 C 196.750000 137.250000 198.234375 137.000000 199.699219 136.500000 C 203.265625 135.265625 205.917969 132.964844 207.648438 129.601562 C 208.785156 127.265625 209.234375 124.832031 209.000000 122.300781 L 210.949219 119.449219 C 211.449219 118.183594 211.117188 117.199219 209.949219 116.500000 L 206.648438 115.699219 C 203.949219 111.867188 200.199219 109.867188 195.398438 109.699219 C 193.867188 109.699219 192.382812 109.933594 190.949219 110.398438 C 187.285156 111.734375 184.632812 114.050781 183.000000 117.351562 C 181.367188 120.617188 181.117188 124.117188 182.250000 127.851562 "/>
    <path style="stroke:none;fill-rule:evenodd;fill:rgb(62.352941%,63.137255%,64.313725%);fill-opacity:1" d="M 248.851562 113.250000 C 248.917969 106.148438 251.449219 100.066406 256.449219 95.000000 C 258.949219 92.535156 261.765625 90.667969 264.898438 89.398438 L 269.949219 94.550781 C 272.117188 91.984375 274.816406 90.148438 278.050781 89.050781 C 279.984375 88.382812 281.949219 88.066406 283.949219 88.101562 C 292.316406 88.566406 298.050781 92.699219 301.148438 100.500000 C 303.285156 108.433594 301.398438 115.035156 295.500000 120.300781 L 302.750000 127.800781 C 303.117188 127.867188 303.484375 127.933594 303.851562 128.000000 C 307.683594 128.332031 311.015625 127.367188 313.851562 125.101562 C 316.683594 122.867188 318.382812 119.832031 318.949219 116.000000 C 318.984375 115.464844 319.000000 114.933594 319.000000 114.398438 C 319.035156 114.367188 319.050781 114.351562 319.050781 114.351562 C 318.984375 108.484375 317.734375 102.785156 315.300781 97.250000 C 312.832031 91.683594 309.535156 86.800781 305.398438 82.601562 C 296.898438 74.199219 286.667969 69.898438 274.699219 69.699219 C 262.765625 69.765625 252.500000 73.964844 243.898438 82.300781 C 235.398438 90.898438 231.101562 101.234375 231.000000 113.300781 L 248.851562 113.250000 "/>
    <path style="stroke:none;fill-rule:evenodd;fill:rgb(62.352941%,63.137255%,64.313725%);fill-opacity:1" d="M 296.851562 101.898438 C 294.550781 95.964844 290.234375 92.832031 283.898438 92.500000 C 282.398438 92.500000 280.917969 92.734375 279.449219 93.199219 C 275.882812 94.464844 273.234375 96.785156 271.500000 100.148438 C 270.367188 102.484375 269.917969 104.917969 270.148438 107.449219 L 268.199219 110.250000 C 267.699219 111.550781 268.035156 112.535156 269.199219 113.199219 L 272.500000 114.050781 C 275.199219 117.851562 278.949219 119.851562 283.750000 120.050781 C 285.285156 120.050781 286.765625 119.800781 288.199219 119.300781 C 291.867188 117.964844 294.515625 115.667969 296.148438 112.398438 C 297.785156 109.101562 298.015625 105.601562 296.851562 101.898438 "/>
  </g>
  <g id="surface4">
  </g>
</svg>